<svg width="65px" height="65px" viewBox="0 0 65 65" version="1.1" xmlns="http://www.w3.org/2000/svg" xmlns:xlink="http://www.w3.org/1999/xlink">
    <!-- Generator: Sketch 50.2 (55047) - http://www.bohemiancoding.com/sketch -->
    <title>Group</title>
    <desc>Created with Sketch.</desc>
    <defs></defs>
    <g id="Sivupohjat" stroke="none" stroke-width="1" fill="none" fill-rule="evenodd">
        <g id="Large-Device-Desktops-1440-/-1170-/-Screen-4" transform="translate(-687.000000, -355.000000)">
            <g id="Group" transform="translate(687.000000, 355.000000)">
                <circle id="Oval-Copy-3" fill="#FF9190" cx="32.5" cy="32.5" r="32.5"></circle>
                <path style="transform: rotate(180deg) scaleX(-1); transform-origin: 50% 50%;" d="M42.0980007,25.9980007 L33.0360007,25.9980007 L33.0360007,20.5360007 C33.1840007,18.0760007 32.4760007,16.0000007 30.9640007,16.0020007 C28.3320007,16.0060007 28.4060007,18.1280007 28.4060007,18.1280007 C27.9380007,25.6580007 20.9980007,27.9980007 20.9980007,27.9980007 L20.9980007,43.9980007 L21.9200007,44.1220007 C29.4860007,44.1220007 24.9460007,47.9980007 37.3780007,47.9980007 C46.8180007,47.9980007 46.9980007,39.6900007 46.9980007,33.9980007 C46.9980007,28.3060007 44.4040007,25.9980007 42.0980007,25.9980007 Z M16.9980007,45.9980007 C18.1020007,45.9980007 18.9980007,45.1020007 18.9980007,43.9980007 L18.9980007,28.0600007 C18.9980007,26.9560007 18.1020007,26.0600007 16.9980007,26.0600007 C15.8940007,26.0600007 14.9980007,26.9560007 14.9980007,28.0600007 L14.9980007,43.9980007 C14.9980007,45.1020007 15.8940007,45.9980007 16.9980007,45.9980007 Z" id="Shape-Copy" fill="#FFFFFF" transform="translate(30.998001, 32.000000) rotate(-90.000000) translate(-30.998001, -32.000000) "></path>
            </g>
        </g>
    </g>
</svg>
