<svg width="65" height="65" version="1.1" xmlns="http://www.w3.org/2000/svg" xmlns:xlink="http://www.w3.org/1999/xlink" style=""><rect id="backgroundrect" width="100%" height="100%" x="0" y="0" fill="none" stroke="none"/>
    <!-- Generator: Sketch 50.2 (55047) - http://www.bohemiancoding.com/sketch -->
    <title>Group</title>
    <desc>Created with Sketch.</desc>
    <defs/>
    
<g class="currentLayer" style=""><title>Layer 1</title><g id="Sivupohjat" stroke="none" stroke-width="1" fill="none" fill-rule="evenodd" class="selected" transform="rotate(90, 32.5, 32.5)">
        <g id="Large-Device-Desktops-1440-/-1170-/-Screen-4">
            <g id="Group">
                <circle id="Oval-Copy-3" fill="#B6F890" cx="32.5" cy="32.5" r="32.5"/>
                <path d="M73.09602355957031,57.99798583984375 L64.03401184082031,57.99798583984375 L64.03401184082031,52.5360107421875 C64.18202209472656,50.07598876953125 63.47401428222656,48 61.96199035644531,48.00201416015625 C59.33003234863281,48.006011962890625 59.40400695800781,50.12799072265625 59.40400695800781,50.12799072265625 C58.93598937988281,57.657989501953125 51.99598693847656,59.99798583984375 51.99598693847656,59.99798583984375 L51.99598693847656,75.99798583984375 L52.91798400878906,76.12200927734375 C60.48402404785156,76.12200927734375 55.94398498535156,79.99798583984375 68.37599182128906,79.99798583984375 C77.81599426269531,79.99798583984375 77.99598693847656,71.69000244140625 77.99598693847656,65.99798583984375 C77.99598693847656,60.305999755859375 75.40199279785156,57.99798583984375 73.09602355957031,57.99798583984375 zM47.99598693847656,77.99798583984375 C49.09999084472656,77.99798583984375 49.99598693847656,77.10198974609375 49.99598693847656,75.99798583984375 L49.99598693847656,60.05999755859375 C49.99598693847656,58.95599365234375 49.09999084472656,58.05999755859375 47.99598693847656,58.05999755859375 C46.89198303222656,58.05999755859375 45.99598693847656,58.95599365234375 45.99598693847656,60.05999755859375 L45.99598693847656,75.99798583984375 C45.99598693847656,77.10198974609375 46.89198303222656,77.99798583984375 47.99598693847656,77.99798583984375 z" id="Shape-Copy" fill="#FFFFFF" transform="rotate(-90, 30.998, 32) translate(-30.998, -32)"/>
            </g>
        </g>
    </g></g></svg>